<?xml version="1.0" standalone="no"?>
<!DOCTYPE svg PUBLIC "-//W3C//DTD SVG 20010904//EN"
 "http://www.w3.org/TR/2001/REC-SVG-20010904/DTD/svg10.dtd">
<svg version="1.0" xmlns="http://www.w3.org/2000/svg"
 width="400.000000pt" height="400.000000pt" viewBox="0 0 400.000000 400.000000"
 preserveAspectRatio="xMidYMid meet">

<g transform="translate(0.000000,400.000000) scale(0.100000,-0.100000)"
fill="#000000" stroke="none">
<path d="M1815 3990 c-11 -5 -39 -9 -62 -9 -80 -2 -368 -72 -463 -113 -14 -6
-34 -14 -45 -18 -11 -4 -69 -32 -130 -61 -250 -122 -473 -298 -650 -514 -224
-273 -351 -542 -431 -915 -28 -131 -37 -467 -16 -610 25 -173 71 -358 113
-457 5 -13 13 -33 18 -45 5 -13 33 -72 62 -133 122 -250 298 -473 514 -650
304 -250 630 -393 1020 -447 102 -15 408 -15 505 0 173 25 358 71 458 113 12
5 32 13 45 18 12 5 71 33 132 62 250 122 473 298 650 514 221 269 356 550 426
890 45 218 45 539 0 770 -17 87 -66 260 -90 320 -5 11 -13 31 -18 45 -6 14
-35 74 -64 135 -253 518 -733 908 -1294 1050 -80 20 -126 29 -270 51 -68 10
-389 14 -410 4z m495 -358 l85 -17 -2 -38 c-2 -21 -7 -55 -13 -76 l-10 -37
-52 8 c-29 4 -83 12 -120 16 l-68 8 0 -1503 0 -1503 33 0 c17 0 72 7 120 15
48 9 91 13 96 11 4 -3 11 -25 14 -49 3 -23 9 -50 12 -59 7 -17 -22 -26 -150
-50 -142 -26 -572 -10 -609 23 -12 11 32 151 46 143 14 -9 154 -34 191 -34
l27 0 0 1501 0 1502 -67 -7 c-38 -3 -93 -9 -124 -12 l-56 -6 -11 73 c-6 40 -9
76 -7 79 4 6 59 15 200 34 70 10 383 -5 465 -22z m-851 -884 c-1 -453 -5
-1159 -8 -1569 l-6 -746 -95 41 c-53 22 -101 45 -108 49 -9 6 -12 188 -12 818
l0 809 -320 0 -320 0 -1 -77 c-2 -161 2 -270 12 -323 47 -243 114 -420 218
-573 l51 -76 0 -158 0 -157 -46 44 c-167 163 -319 417 -390 654 -48 159 -66
295 -66 501 -1 105 4 216 11 248 6 31 16 83 22 115 28 144 133 401 229 557 50
83 131 190 194 260 l45 50 0 -170 1 -170 -30 -43 c-63 -94 -210 -409 -210
-452 0 -7 99 -10 300 -10 l300 0 0 549 c0 425 3 552 12 558 16 11 201 92 211
92 4 1 6 -369 6 -821z m1346 699 c423 -243 715 -637 815 -1102 17 -79 40 -274
40 -345 0 -98 -26 -293 -55 -408 -66 -260 -216 -533 -402 -729 l-68 -72 -57
50 c-32 28 -58 55 -58 60 0 5 32 46 71 91 262 304 378 634 367 1043 l-3 120
-325 0 -325 0 -2 -799 c-2 -631 -5 -802 -15 -812 -7 -6 -55 -30 -105 -52 l-93
-41 0 1549 0 1549 73 -31 c39 -17 104 -48 142 -71z"/>
<path d="M2807 3224 c-4 -4 -7 -197 -7 -430 l0 -424 310 0 c170 0 310 4 310 8
0 19 -49 152 -84 227 -101 219 -258 418 -462 583 -55 44 -57 46 -67 36z"/>
</g>
</svg>
